<?xml version="1.0" encoding="UTF-8" standalone="no"?>
<!DOCTYPE svg PUBLIC "-//W3C//DTD SVG 1.1//EN" "http://www.w3.org/Graphics/SVG/1.1/DTD/svg11.dtd">
<svg width="100%" height="100%" viewBox="0 0 429 138" version="1.1" xmlns="http://www.w3.org/2000/svg" xmlns:xlink="http://www.w3.org/1999/xlink" xml:space="preserve" xmlns:serif="http://www.serif.com/" style="fill-rule:evenodd;clip-rule:evenodd;stroke-linecap:round;stroke-linejoin:round;">
    <g transform="matrix(1,0,0,1,-13,-15)">
        <g transform="matrix(2.5,0,0,2.5,0,5)">
            <path d="M30,6L10,6C8,6 7,7 7,9L7,30" style="fill:none;fill-rule:nonzero;stroke:rgb(127,185,196);stroke-width:2.8px;"/>
            <path d="M39,15L19,15C17,15 16,16 16,18L16,39" style="fill:none;fill-rule:nonzero;stroke:rgb(43,166,179);stroke-width:2.8px;"/>
            <path d="M52,24L28,24C26,24 25,25 25,27L25,51" style="fill:none;fill-rule:nonzero;stroke:rgb(0,166,214);stroke-width:3.4px;"/>
            <path d="M30,57L54,57C56,57 57,56 57,54L57,30" style="fill:none;fill-rule:nonzero;stroke:rgb(0,166,214);stroke-width:3.4px;"/>
            <path d="M41,30L52,36L41,42L30,36L41,30Z" style="fill:rgb(52,195,240);fill-opacity:0.22;fill-rule:nonzero;stroke:rgb(52,195,240);stroke-width:1.7px;"/>
            <path d="M30,36L41,42L41,52L30,46L30,36Z" style="fill:rgb(52,195,240);fill-opacity:0.1;fill-rule:nonzero;stroke:rgb(52,195,240);stroke-width:1.7px;"/>
            <path d="M41,42L52,36L52,46L41,52L41,42Z" style="fill:rgb(52,195,240);fill-opacity:0.32;fill-rule:nonzero;stroke:rgb(52,195,240);stroke-width:1.7px;"/>
        </g>
        <g transform="matrix(2.5,0,0,2.5,157.252,126.314)">
            <g>
                <text x="0px" y="0px" style="font-family:'Helvetica-Bold', 'Helvetica';font-weight:700;font-size:30px;fill:rgb(234,241,245);">O</text>
                <g transform="matrix(1,0,0,1,23.095,0)">
                    <text x="0px" y="0px" style="font-family:'Helvetica-Bold', 'Helvetica';font-weight:700;font-size:30px;fill:rgb(234,241,245);">p<tspan x="18.085px 34.53px " y="0px 0px ">en</tspan></text>
                </g>
            </g>
            <g>
                <g transform="matrix(1,0,0,1,75.71,0)">
                    <text x="0px" y="0px" style="font-family:'Helvetica-Bold', 'Helvetica';font-weight:700;font-size:30px;fill:rgb(0,166,214);">3</text>
                </g>
                <g transform="matrix(1,0,0,1,92.154,0)">
                    <text x="0px" y="0px" style="font-family:'Helvetica-Bold', 'Helvetica';font-weight:700;font-size:30px;fill:rgb(0,166,214);">D</text>
                </g>
            </g>
        </g>
    </g>
</svg>
